<!-- Copyright (c) 2025 kk -->
<!-- KkOps Icon - Modern Tech Symbol -->
<svg width="32" height="32" viewBox="0 0 32 32" fill="none" xmlns="http://www.w3.org/2000/svg">
  <defs>
    <!-- Premium gradient -->
    <linearGradient id="iconGradient" x1="0%" y1="0%" x2="100%" y2="100%">
      <stop offset="0%" style="stop-color:#6366F1"/>
      <stop offset="50%" style="stop-color:#8B5CF6"/>
      <stop offset="100%" style="stop-color:#A855F7"/>
    </linearGradient>
    <!-- Glow effect -->
    <filter id="glow" x="-20%" y="-20%" width="140%" height="140%">
      <feGaussianBlur stdDeviation="1" result="blur"/>
      <feMerge>
        <feMergeNode in="blur"/>
        <feMergeNode in="SourceGraphic"/>
      </feMerge>
    </filter>
  </defs>
  
  <!-- Background with rounded corners -->
  <rect x="0" y="0" width="32" height="32" rx="8" fill="url(#iconGradient)"/>
  
  <!-- Abstract K symbol - terminal/command style -->
  <!-- Left bracket -->
  <path d="M8 7 L8 25 L11 25 L11 10 L8 7 Z" fill="white" fill-opacity="0.95"/>
  <path d="M8 7 L14 7 L14 10 L11 10 L8 7 Z" fill="white" fill-opacity="0.95"/>
  
  <!-- K diagonal arms -->
  <path d="M12 15 L18 9 L21 9 L14 16 L21 23 L18 23 L12 17 Z" fill="white" fill-opacity="0.95"/>
  
  <!-- Right bracket -->
  <path d="M24 7 L24 25 L21 25 L21 10 L24 7 Z" fill="white" fill-opacity="0.7"/>
  <path d="M24 7 L18 7 L18 10 L21 10 L24 7 Z" fill="white" fill-opacity="0.7"/>
  
  <!-- Cursor/active indicator -->
  <rect x="10" y="22" width="3" height="2" rx="0.5" fill="white" fill-opacity="0.9">
    <animate attributeName="opacity" values="1;0.4;1" dur="1.2s" repeatCount="indefinite"/>
  </rect>
</svg>
