<!-- Copyright (c) 2025 kk -->
<!-- KkOps Logo - Full Logo with Wordmark -->
<svg width="160" height="40" viewBox="0 0 160 40" fill="none" xmlns="http://www.w3.org/2000/svg">
  <defs>
    <!-- Premium gradient -->
    <linearGradient id="logoGradient" x1="0%" y1="0%" x2="100%" y2="100%">
      <stop offset="0%" style="stop-color:#6366F1"/>
      <stop offset="50%" style="stop-color:#8B5CF6"/>
      <stop offset="100%" style="stop-color:#A855F7"/>
    </linearGradient>
  </defs>
  
  <!-- Icon mark with background -->
  <rect x="0" y="4" width="32" height="32" rx="8" fill="url(#logoGradient)"/>
  
  <!-- Abstract K symbol -->
  <path d="M8 11 L8 29 L11 29 L11 14 L8 11 Z" fill="white" fill-opacity="0.95"/>
  <path d="M8 11 L14 11 L14 14 L11 14 L8 11 Z" fill="white" fill-opacity="0.95"/>
  <path d="M12 19 L18 13 L21 13 L14 20 L21 27 L18 27 L12 21 Z" fill="white" fill-opacity="0.95"/>
  <path d="M24 11 L24 29 L21 29 L21 14 L24 11 Z" fill="white" fill-opacity="0.7"/>
  <path d="M24 11 L18 11 L18 14 L21 14 L24 11 Z" fill="white" fill-opacity="0.7"/>
  <rect x="10" y="26" width="3" height="2" rx="0.5" fill="white" fill-opacity="0.9">
    <animate attributeName="opacity" values="1;0.4;1" dur="1.2s" repeatCount="indefinite"/>
  </rect>
  
  <!-- Wordmark: KkOps -->
  <!-- K -->
  <path d="M48 10 L48 30 L52 30 L52 22 L58 30 L63 30 L56 21 L62 10 L57 10 L52 18 L52 10 Z" fill="currentColor"/>
  <!-- k -->
  <path d="M66 10 L66 30 L70 30 L70 23 L74 30 L79 30 L73 21 L78 14 L73 14 L70 19 L70 10 Z" fill="currentColor" fill-opacity="0.7"/>
  <!-- O -->
  <path d="M88 14 C82 14 82 30 88 30 L94 30 C100 30 100 14 94 14 Z M88 18 L94 18 C96 18 96 26 94 26 L88 26 C86 26 86 18 88 18 Z" fill="url(#logoGradient)"/>
  <!-- p -->
  <path d="M104 14 L104 36 L108 36 L108 28 C110 30 112 30 114 30 C120 30 120 14 114 14 L108 14 L108 18 L114 18 C116 18 116 26 114 26 L108 26 L108 14 Z" fill="currentColor"/>
  <!-- s -->
  <path d="M124 14 C118 14 118 22 124 22 L128 22 C130 22 130 26 128 26 L122 26 L122 30 L128 30 C134 30 134 22 128 22 L124 22 C122 22 122 18 124 18 L130 18 L130 14 Z" fill="currentColor"/>
</svg>
