<svg width="32" height="32" viewBox="0 0 32 32" fill="none" xmlns="http://www.w3.org/2000/svg">
  <defs>
    <!-- 现代渐变 - 专业科技蓝 -->
    <linearGradient id="iconPrimaryGradient" x1="0%" y1="0%" x2="100%" y2="100%">
      <stop offset="0%" style="stop-color:#2563eb;stop-opacity:1" />
      <stop offset="50%" style="stop-color:#3b82f6;stop-opacity:1" />
      <stop offset="100%" style="stop-color:#60a5fa;stop-opacity:1" />
    </linearGradient>

    <!-- 辅助渐变 - 优雅紫色 -->
    <linearGradient id="iconAccentGradient" x1="0%" y1="0%" x2="100%" y2="0%">
      <stop offset="0%" style="stop-color:#7c3aed;stop-opacity:1" />
      <stop offset="100%" style="stop-color:#a855f7;stop-opacity:1" />
    </linearGradient>

    <!-- 柔和阴影 -->
    <filter id="iconSoftShadow" x="-20%" y="-20%" width="140%" height="140%">
      <feDropShadow dx="0" dy="2" stdDeviation="3" flood-color="rgba(37,99,235,0.2)"/>
    </filter>
  </defs>

  <!-- 主容器背景 -->
  <rect width="32" height="32" rx="6" fill="#ffffff" filter="url(#iconSoftShadow)"/>
  <rect x="2" y="2" width="28" height="28" rx="4" fill="#f8fafc"/>
  <rect x="3" y="3" width="26" height="26" rx="3" fill="#ffffff" stroke="#e2e8f0" stroke-width="0.5"/>

  <!-- K字母 - 简洁几何 -->
  <g transform="translate(6,6)">
    <!-- K的主体线条 -->
    <rect x="0" y="0" width="3" height="20" rx="1" fill="url(#iconPrimaryGradient)"/>
    <!-- K的上分支 -->
    <path d="M3 2 L8 2 L8 6 L3 6 Z" fill="url(#iconPrimaryGradient)" rx="1"/>
    <!-- K的下分支 -->
    <path d="M3 14 L7 20 L7 16 L3 16 Z" fill="url(#iconPrimaryGradient)" rx="1"/>
  </g>

  <!-- O字母 - 完美圆形 -->
  <g transform="translate(16,6)">
    <!-- O的外环 -->
    <circle cx="6" cy="10" r="9" fill="none" stroke="url(#iconPrimaryGradient)" stroke-width="3"/>
    <!-- O的内环 -->
    <circle cx="6" cy="10" r="5" fill="none" stroke="url(#iconAccentGradient)" stroke-width="1.5" opacity="0.6"/>
    <!-- O的装饰点 -->
    <circle cx="6" cy="6" r="1" fill="url(#iconAccentGradient)" opacity="0.8"/>
  </g>

  <!-- P字母 - 专业设计 -->
  <g transform="translate(24,6)">
    <!-- P的主体 -->
    <rect x="0" y="0" width="2" height="20" rx="1" fill="url(#iconPrimaryGradient)"/>
    <!-- P的上横 -->
    <rect x="2" y="0" width="6" height="4" rx="1" fill="url(#iconPrimaryGradient)"/>
    <!-- P的下横 -->
    <rect x="2" y="8" width="5" height="3" rx="1" fill="url(#iconPrimaryGradient)"/>
  </g>

  <!-- 装饰性几何元素 -->
  <circle cx="4" cy="4" r="1.5" fill="url(#iconPrimaryGradient)" opacity="0.3"/>
  <circle cx="28" cy="28" r="1.5" fill="url(#iconAccentGradient)" opacity="0.3"/>
</svg>